HIERARCHY
ROOT Hips
{
	OFFSET 0.000000  0.463670  0.080341
	CHANNELS 6 Xposition Yposition Zposition Zrotation Yrotation Xrotation 
	JOINT LHipJoint
	{
		OFFSET 0 0 0
		CHANNELS 3 Zrotation Yrotation Xrotation
		JOINT LeftUpLeg
		{
			OFFSET 0.949434 -0.248378 0.086503
			CHANNELS 3 Zrotation Yrotation Xrotation
			JOINT LeftLeg
			{
				OFFSET -0.076513 -3.879421 -0.177038
				CHANNELS 3 Zrotation Yrotation Xrotation
				JOINT LeftFoot
				{
					OFFSET -0.188964 -3.680973 -0.122632
					CHANNELS 3 Zrotation Yrotation Xrotation
					JOINT LeftToeBase
					{
						OFFSET 0.055451 -0.524480 1.120382
						CHANNELS 3 Zrotation Yrotation Xrotation
						End Site
						{
							OFFSET 0.007944 -0.006006 0.139660
						}
					}
				}
			}
		}
	}
	JOINT RHipJoint
	{
		OFFSET 0 0 0
		CHANNELS 3 Zrotation Yrotation Xrotation
		JOINT RightUpLeg
		{
			OFFSET -0.949434 -0.248378 0.086503
			CHANNELS 3 Zrotation Yrotation Xrotation
			JOINT RightLeg
			{
				OFFSET 0.076513 -3.879421 -0.177038
				CHANNELS 3 Zrotation Yrotation Xrotation
				JOINT RightFoot
				{
					OFFSET 0.188964 -3.680973 -0.122632
					CHANNELS 3 Zrotation Yrotation Xrotation
					JOINT RightToeBase
					{
						OFFSET -0.055451 -0.524480 1.120382
						CHANNELS 3 Zrotation Yrotation Xrotation
						End Site
						{
							OFFSET -0.007944 -0.006006 0.139660
						}
					}
				}
			}
		}
	}
	JOINT LowerBack
	{
		OFFSET 0 0 0
		CHANNELS 3 Zrotation Yrotation Xrotation
		JOINT Spine
		{
			OFFSET 0.000000 0.677144 0.028277
			CHANNELS 3 Zrotation Yrotation Xrotation
			JOINT Spine1
			{
				OFFSET 0.000000 2.156116 -0.508617
				CHANNELS 3 Zrotation Yrotation Xrotation
				JOINT Neck
				{
					OFFSET 0 0 0
					CHANNELS 3 Zrotation Yrotation Xrotation
					JOINT Neck1
					{
						OFFSET 0.000000 1.781871 0.216275
						CHANNELS 3 Zrotation Yrotation Xrotation
						JOINT Head
						{
							OFFSET 0.000000 1.015906 -0.026879
							CHANNELS 3 Zrotation Yrotation Xrotation
							End Site
							{
								OFFSET 0.000000 0.339197 0.983632
							}
						}
					}
				}
				JOINT LeftShoulder
				{
					OFFSET 0 0 0
					CHANNELS 3 Zrotation Yrotation Xrotation
					JOINT LeftArm
					{
						OFFSET 1.565866 1.184736 0.289545
						CHANNELS 3 Zrotation Yrotation Xrotation
						JOINT LeftForeArm
						{
							OFFSET 1.930940 -0.176441 -0.109244
							CHANNELS 3 Zrotation Yrotation Xrotation
							JOINT LeftHand
							{
								OFFSET 2.263412 -0.058986 0.122483
								CHANNELS 3 Zrotation Yrotation Xrotation
								JOINT LeftFingerBase
								{
									OFFSET 0 0 0
									CHANNELS 3 Zrotation Yrotation Xrotation
									JOINT LeftHandIndex1
									{
										OFFSET 0.944218 0.017559 0.358417
										CHANNELS 3 Zrotation Yrotation Xrotation
										End Site
										{
											OFFSET 0.237801 -0.022714 0.035813
										}
									}
								}
								JOINT LThumb
								{
									OFFSET 0 0 0
									CHANNELS 3 Zrotation Yrotation Xrotation
									End Site
									{
										OFFSET 0.234930 -0.092931 0.244282
									}
								}
							}
						}
					}
				}
				JOINT RightShoulder
				{
					OFFSET 0 0 0
					CHANNELS 3 Zrotation Yrotation Xrotation
					JOINT RightArm
					{
						OFFSET -1.565866 1.184736 0.289545
						CHANNELS 3 Zrotation Yrotation Xrotation
						JOINT RightForeArm
						{
							OFFSET -1.930940 -0.176441 -0.109244
							CHANNELS 3 Zrotation Yrotation Xrotation
							JOINT RightHand
							{
								OFFSET -2.263412 -0.058986 0.122483
								CHANNELS 3 Zrotation Yrotation Xrotation
								JOINT RightFingerBase
								{
									OFFSET 0 0 0
									CHANNELS 3 Zrotation Yrotation Xrotation
									JOINT RightHandIndex1
									{
										OFFSET -0.944218 0.017559 0.358417
										CHANNELS 3 Zrotation Yrotation Xrotation
										End Site
										{
											OFFSET -0.237801 -0.022714 0.035813
										}
									}
								}
								JOINT RThumb
								{
									OFFSET 0 0 0
									CHANNELS 3 Zrotation Yrotation Xrotation
									End Site
									{
										OFFSET -0.234930 -0.092931 0.244282
									}
								}
							}
						}
					}
				}
			}
		}
	}
}
MOTION
Frames: 10
Frame Time: .0083333
0.522229 9.557673 3.704872 0.000000 0.000000 0.000000 0.000000 0.000000 0.000000 0.000000 0.000000 0.000000 0.000000 0.000000 0.000000 0.000000 0.000000 0.000000 0.000000 0.000000 0.000000 0.000000 0.000000 0.000000 0.000000 0.000000 0.000000 0.000000 0.000000 0.000000 0.000000 0.000000 0.000000 0.000000 0.000000 0.000000 0.000000 0.000000 0.000000 0.000000 0.000000 0.000000 0.000000 0.000000 0.000000 0.000000 0.000000 0.000000 0.000000 0.000000 0.000000 0.000000 0.000000 0.000000 0.000000 0.000000 0.000000 0.000000 0.000000 0.000000 0.000000 0.000000 0.000000 0.000000 0.000000 0.000000 0.000000 0.000000 0.000000 0.000000 0.000000 0.000000 0.000000 0.000000 0.000000 0.000000 0.000000 0.000000 0.000000 0.000000 0.000000 0.000000 0.000000 0.000000 0.000000 0.000000 0.000000 0.000000 0.000000 0.000000 0.000000 0.000000 0.000000 0.000000 0.000000 0.000000
0.522229 9.557673 3.704872 5.481800 -2.070500 5.460400 0.000000 0.000000 0.000000 -1.340000 -12.014700 -5.087100 0.601800 4.966000 13.811700 -0.105200 11.103200 -14.149500 0.018000 0.866700 2.382100 0.000000 0.000000 0.000000 -15.237400 7.391000 -4.501400 -2.393500 -9.641600 27.823900 -0.585700 -14.299200 -25.782499 -0.388600 4.002800 -11.084600 -6.267500 -3.915500 -4.209300 0.126100 -5.179900 -7.050500 3.582700 -2.293100 -4.428700 -3.011200 -8.070200 15.980900 -3.293700 -10.514700 3.191500 -1.243700 -5.646300 -3.574300 -0.000000 -0.000000 0.000000 -73.018204 10.179700 43.675499 119.291100 -56.495899 -85.068398 -0.000000 0.000000 -1.034900 9.722300 10.795100 1.838000 -7.125000 0.000000 -0.000000 -15.227400 40.452400 1.753800 -0.000000 -0.000000 0.000000 65.737701 -4.101900 54.319199 -65.558098 57.617699 -39.001999 0.000000 -0.000000 -19.802099 -4.855000 -10.688100 0.902500 7.125000 -0.000000 -0.000000 19.311199 -39.936798 2.519100
0.575639 9.559440 3.713033 5.708200 -2.134200 5.378000 0.000000 0.000000 0.000000 -1.964899 -11.472800 -4.985600 0.571200 4.840300 13.453500 -0.094600 10.782400 -13.820800 0.021200 0.939200 2.581500 0.000000 0.000000 0.000000 -15.979600 7.034300 -4.879800 -2.477200 -9.796200 28.319401 -0.570200 -13.913600 -25.237801 -0.449100 4.299700 -11.921500 -6.368500 -3.872900 -4.027400 0.153100 -5.133400 -6.999400 3.678800 -2.263600 -4.471900 -2.892000 -8.070200 16.139799 -3.707600 -10.429600 2.255501 -1.344900 -5.621300 -3.943600 0.000000 0.000000 0.000000 -73.264801 11.125100 43.770699 115.495201 -57.395500 -81.886398 -0.000000 0.000000 -1.560900 9.713700 11.056000 1.880200 -7.125000 0.000000 -0.000000 -15.301800 40.706299 1.664400 0.000000 0.000000 0.000000 66.012398 -4.426500 54.131599 -61.399502 56.671501 -35.507999 0.000000 -0.000000 -19.102200 -4.748100 -12.011100 0.990300 7.125000 -0.000000 -0.000000 19.800100 -41.176498 1.953600
0.630755 9.559988 3.722046 5.908900 -2.057400 5.251000 0.000000 0.000000 0.000000 -2.574200 -10.948200 -4.766800 0.532600 4.676200 12.987300 -0.086300 10.402000 -13.365100 0.022800 0.974700 2.679300 0.000000 0.000000 0.000000 -16.689400 6.504400 -5.253500 -2.581600 -9.984800 28.927401 -0.561400 -13.474400 -24.690201 -0.515800 4.603300 -12.780500 -6.359900 -3.858400 -3.813000 0.142000 -5.126900 -6.898800 3.674100 -2.262200 -4.487700 -2.992300 -8.073000 15.985700 -3.833400 -10.388500 1.718800 -1.354600 -5.613000 -4.094200 -0.000000 -0.000000 0.000000 -73.478600 11.934700 43.872200 111.059998 -58.256001 -78.131699 -0.000000 0.000000 -2.076400 9.641500 11.509300 1.941400 -7.125000 0.000000 -0.000000 -15.482600 41.141800 1.514100 -0.000000 -0.000000 0.000000 66.463501 -4.853500 53.564999 -57.292599 55.544201 -32.098301 0.000000 -0.000000 -18.079800 -4.666200 -12.410800 1.005000 7.125000 -0.000000 -0.000000 19.995701 -41.545200 1.783800
0.681730 9.563703 3.729537 6.086300 -2.314800 5.243100 0.000000 0.000000 0.000000 -3.114100 -10.341400 -4.681700 0.495000 4.511000 12.518900 -0.081000 10.147800 -13.060200 0.026300 1.047600 2.879800 0.000000 0.000000 0.000000 -17.394699 6.230000 -5.883100 -2.690400 -10.176200 29.549200 -0.524200 -13.082400 -23.947201 -0.555000 4.772300 -13.260300 -6.380000 -3.690900 -3.700900 0.102600 -4.913100 -6.881500 3.655900 -2.153200 -4.557600 -3.270900 -8.036200 15.565400 -3.620000 -10.341100 1.955999 -1.271800 -5.595700 -3.914300 -0.000000 -0.000000 0.000000 -73.666100 12.719300 44.026501 105.635803 -59.055801 -73.498100 -0.000000 0.000000 -2.453700 9.238400 12.078400 1.949300 -7.125000 0.000000 -0.000000 -15.984400 41.658199 1.356200 -0.000000 -0.000000 0.000000 66.992401 -5.427600 52.776402 -53.149399 54.189400 -28.709200 0.000000 -0.000000 -17.267000 -4.412200 -12.601700 0.964400 7.125000 -0.000000 -0.000000 20.272699 -41.700600 1.729200
0.733800 9.565104 3.737211 6.277900 -2.424900 5.180000 0.000000 0.000000 0.000000 -3.681999 -9.771900 -4.517500 0.455900 4.331700 12.011700 -0.075600 9.842500 -12.678300 0.029600 1.110700 3.053400 0.000000 0.000000 0.000000 -18.087999 5.919000 -6.410900 -2.811400 -10.383300 30.227200 -0.495200 -12.738800 -23.318701 -0.595700 4.941200 -13.740800 -6.393300 -3.582600 -3.538300 0.062600 -4.781000 -6.836600 3.633400 -2.086100 -4.618200 -3.465800 -8.012800 15.257100 -3.525500 -10.296400 1.966801 -1.225200 -5.580500 -3.839900 -0.000000 0.000000 0.000000 -73.882500 13.505900 44.086102 100.330597 -59.592899 -68.934303 -0.000000 0.000000 -2.991800 8.681600 12.697300 1.922200 -7.125000 0.000000 -0.000000 -16.642000 42.203999 1.184000 -0.000000 0.000000 0.000000 67.493301 -5.947400 51.957100 -49.410599 52.755001 -25.704201 0.000000 -0.000000 -16.494801 -4.288500 -13.076300 0.972000 7.125000 -0.000000 -0.000000 20.534000 -42.133801 1.522900
0.784957 9.566383 3.744519 6.464200 -2.543100 5.123000 0.000000 0.000000 0.000000 -4.236099 -9.197200 -4.319000 0.412700 4.123600 11.424700 -0.073100 9.551400 -12.265000 0.033400 1.179400 3.242500 0.000000 0.000000 0.000000 -18.760401 5.663900 -6.978300 -2.947800 -10.610000 30.975700 -0.461400 -12.450200 -22.695200 -0.620000 5.039100 -14.020200 -6.403200 -3.465400 -3.375500 0.009900 -4.638000 -6.801300 3.595800 -2.013500 -4.691500 -3.681100 -7.975300 14.874800 -3.354000 -10.243400 2.194500 -1.161600 -5.558500 -3.675200 -0.000000 -0.000000 0.000000 -74.117798 14.269200 44.072399 94.709396 -59.916000 -64.077301 -0.000000 0.000000 -3.560700 7.820800 13.401800 1.823400 -7.125000 0.000000 -0.000000 -17.600500 42.795898 0.990500 -0.000000 -0.000000 0.000000 68.018097 -6.507200 51.000099 -45.893299 51.198700 -22.932800 0.000000 -0.000000 -15.802500 -4.252400 -13.469100 0.992200 7.125000 -0.000000 -0.000000 20.697001 -42.498199 1.340400
0.835018 9.567540 3.751340 6.654900 -2.663600 5.075200 0.000000 0.000000 0.000000 -4.784700 -8.638600 -4.120000 0.370300 3.908700 10.819900 -0.071200 9.267200 -11.852200 0.037800 1.255500 3.452100 0.000000 0.000000 0.000000 -19.418301 5.468800 -7.574700 -3.096000 -10.848900 31.772100 -0.419000 -12.241300 -22.066099 -0.628200 5.071700 -14.113200 -6.433800 -3.351100 -3.208800 -0.049000 -4.500000 -6.778000 3.563200 -1.941800 -4.778500 -3.867000 -7.913900 14.444901 -3.155200 -10.163700 2.588499 -1.099500 -5.520200 -3.446800 -0.000000 -0.000000 0.000000 -74.386497 15.019900 43.957199 88.907303 -59.995499 -59.053699 -0.000000 0.000000 -4.157000 6.678500 14.165600 1.641400 -7.125000 0.000000 -0.000000 -18.839001 43.405899 0.770300 -0.000000 -0.000000 0.000000 68.537903 -7.079300 49.965401 -42.597900 49.535900 -20.394300 0.000000 -0.000000 -15.241000 -4.338500 -13.835100 1.039300 7.125000 -0.000000 -0.000000 20.748600 -42.849602 1.154900
0.883983 9.568696 3.757674 6.846800 -2.773700 5.037600 0.000000 0.000000 0.000000 -5.324699 -8.097700 -3.898200 0.326400 3.671900 10.155300 -0.071500 8.997900 -11.414900 0.043200 1.341200 3.688200 0.000000 0.000000 0.000000 -20.054199 5.336400 -8.200300 -3.259100 -11.103100 32.628399 -0.369600 -12.119000 -21.447399 -0.618300 5.032200 -14.000300 -6.490200 -3.254500 -3.035500 -0.104000 -4.386800 -6.766400 3.548900 -1.880600 -4.877300 -3.991100 -7.817200 13.985800 -2.965100 -10.038900 3.105801 -1.051000 -5.456700 -3.175100 0.000000 -0.000000 0.000000 -74.704697 15.765200 43.710602 83.039803 -59.816200 -53.976002 -0.000000 0.000000 -4.752400 5.309100 14.939700 1.372400 -7.125000 0.000000 -0.000000 -20.298201 43.988800 0.529500 0.000000 -0.000000 0.000000 69.035103 -7.643700 48.885502 -39.514099 47.779400 -18.078600 0.000000 -0.000000 -14.802600 -4.576900 -14.113800 1.118300 7.125000 -0.000000 -0.000000 20.640400 -43.135300 0.995400
0.931547 9.570036 3.763581 7.035800 -2.885000 5.020800 0.000000 0.000000 0.000000 -5.850599 -7.577900 -3.662800 0.281500 3.412500 9.429500 -0.074400 8.756300 -10.959900 0.049700 1.438500 3.956100 0.000000 0.000000 0.000000 -20.663401 5.278500 -8.867100 -3.436600 -11.370300 33.539200 -0.312500 -12.088700 -20.834900 -0.589800 4.917000 -13.672100 -6.582700 -3.180200 -2.865400 -0.143500 -4.303500 -6.766300 3.570200 -1.831600 -4.980300 -4.045400 -7.678600 13.503000 -2.797400 -9.858800 3.717600 -1.019000 -5.362900 -2.871200 -0.000000 0.000000 0.000000 -75.078697 16.494600 43.329601 77.181198 -59.369900 -48.922100 -0.000000 0.000000 -5.294900 3.826000 15.676400 1.035200 -7.125000 0.000000 -0.000000 -21.862000 44.509998 0.278200 -0.000000 0.000000 0.000000 69.493202 -8.181000 47.779099 -36.636398 45.945900 -15.978200 0.000000 -0.000000 -14.471800 -4.923900 -14.364500 1.224400 7.125000 -0.000000 -0.000000 20.428699 -43.407001 0.840600
